<?xml version="1.0" encoding="iso-8859-1"?><!-- Uploaded to: SVG Repo, www.svgrepo.com, Generator: SVG Repo Mixer Tools -->
<svg fill="#000000" height="800px" width="800px" version="1.1" id="Layer_1"
    xmlns="http://www.w3.org/2000/svg" xmlns:xlink="http://www.w3.org/1999/xlink"
    viewBox="0 0 512 512" xml:space="preserve">
<g  transform="translate(1 1)">
	<g>
		<g>
			<path fill="#999999" d="M417.133-1H92.867c-14.507,0-25.6,11.093-25.6,25.6v460.8c0,14.507,11.093,25.6,25.6,25.6h324.267
				c14.507,0,25.6-11.093,25.6-25.6V24.6C442.733,10.093,431.64-1,417.133-1z M425.667,485.4c0,5.12-3.413,8.533-8.533,8.533H92.867
				c-5.12,0-8.533-3.413-8.533-8.533V24.6c0-5.12,3.413-8.533,8.533-8.533h324.267c5.12,0,8.533,3.413,8.533,8.533V485.4z" />
            <path fill="#999999" d="M400.075,33.134c-0.003,0-0.006,0-0.009,0H109.933c-5.12,0-8.533,3.413-8.533,8.533v426.667
				c0,5.12,3.413,8.533,8.533,8.533h290.133c5.12,0,8.533-3.413,8.533-8.533V41.667C408.6,36.549,405.19,33.137,400.075,33.134z
				 M391.533,400.067L331.8,459.8h-48.64l108.373-108.373V400.067z M391.533,327.533L259.267,459.8h-48.64l180.907-180.907V327.533z
				 M391.533,255l-204.8,204.8H138.92l252.613-253.395V255z M118.467,117.613L185.88,50.2h48.64L118.467,166.253V117.613z
				 M118.467,190.147L258.413,50.2h48.64L118.467,238.787V190.147z M118.467,262.68L330.947,50.2h48.64l-261.12,261.12V262.68z
				 M391.533,182.467L118.467,455.533v-47.787L391.533,134.68V182.467z M391.533,110.787L118.467,383.853v-48.64L391.533,62.147
				V110.787z M161.987,50.2l-43.52,43.52V50.2H161.987z M355.693,459.8l35.84-35.84v35.84H355.693z" />
		</g>
	</g>
</g>
</svg>